<?xml version="1.0" encoding="UTF-8"?>
<svg width="24px" height="24px" viewBox="0 0 24 24" version="1.1" xmlns="http://www.w3.org/2000/svg" xmlns:xlink="http://www.w3.org/1999/xlink">
    <g stroke="none" stroke-width="1" fill="none" fill-rule="evenodd">
        <path d="M17.0351402,12.5497647 C17.0109274,9.4486871 19.5454279,8.0631342 19.6487481,8.00347342 C18.2332878,5.95608547 16.0175349,5.65646617 15.2426902,5.63448962 C13.3877119,5.44253654 11.6003265,6.74602502 10.6607409,6.74602502 C9.70253639,6.74602502 8.2623654,5.65646617 6.69594094,5.69214002 C4.70956392,5.72781386 2.86884903,6.8567466 1.87652168,8.59631344 C-0.168291248,12.1474542 1.38604467,17.3951442 3.35033057,20.4315479 C4.33425049,21.9102181 5.47749141,23.5629515 6.97118121,23.4962752 C8.42635735,23.4236517 8.9772471,22.5290002 10.7400492,22.5290002 C12.4871424,22.5290002 13.0037214,23.4962752 14.5307432,23.4568804 C16.1052758,23.4315479 17.0836627,21.9580396 18.0367634,20.4675908 C19.1558033,18.7697669 19.6124946,17.0943167 19.636707,17.0123142 C19.5939645,16.9964079 17.0614014,16.0203037 17.0351402,12.5497647 Z" fill="#000000"></path>
        <path d="M13.9247646,3.77095751 C14.7278159,2.79121404 15.2637093,1.46337227 15.1158798,0.113636364 C13.9844104,0.158310205 12.5752442,0.913442781 11.7424801,1.86589884 C11.001505,2.71116536 10.3471009,4.08758834 10.5191432,5.38977273 C11.7909069,5.4702123 13.09358,4.73340357 13.9247646,3.77095751 Z" fill="#000000"></path>
    </g>
</svg> 